<svg xmlns="http://www.w3.org/2000/svg" width="1280" height="869" viewBox="0 0 1280 869" fill="none"><g clip-path="url(#clip0_55_845)"><path d="M515.625 0L519.375 1.25L520.625 3.75L801.25 4.375L811.25 12.5L816.875 16.875L825.625 23.75L835 31.25L852.5 45L862.5 53.125L870.625 59.375L880.625 67.5L898.125 81.25L908.125 89.375L916.25 95.625L926.25 103.75L936.875 111.875L947.5 120.625L955.625 126.875L965.625 135L983.125 148.75L993.125 156.875L1001.88 163.75L1013.12 172.5L1021.25 178.75L1031.25 186.875L1041.88 195L1052.5 203.75L1070 217.5L1080 225.625L1090.62 233.75L1101.25 242.5L1111.88 250.625L1122.5 259.375L1133.12 267.5L1143.75 276.25L1148.12 279.375V280H858.75L848.75 272.5L838.125 263.75L830 257.5L820 249.375L809.375 241.25L798.75 232.5L790.625 226.25L781.25 218.75L772.5 211.875L762.5 203.75L754.375 197.5L745 190L736.25 183.125L726.25 175L718.125 168.75L708.125 160.625L700 154.375L690 146.25L679.375 138.125L671.875 131.875L663.75 125.625L653.75 117.5L648.125 113.125L639.375 106.25L630 98.75L612.5 85L605 78.75L596.875 72.5L586.875 64.375L576.25 56.25L566.25 48.125L555.625 40L548.125 33.75L539.375 26.875L533.125 21.875L524.375 15L516.875 9.375L513.75 10.625L505.625 17.5L497.5 23.75L487.5 31.875L481.875 36.25L475.625 41.25L466.875 48.125L456.875 56.25L451.25 60.625L442.5 67.5L432.5 75.625L426.875 80L418.125 86.875L408.125 95L400 101.25L391.25 108.125L381.25 116.25L372.5 123.125L362.5 131.25L354.375 137.5L344.375 145.625L336.25 151.875L326.25 160L315.625 168.125L308.125 174.375L297.5 182.5L286.875 191.25L276.25 199.375L268.75 205.625L260.625 211.875L250.625 220L241.875 226.875L232.5 234.375L197.5 261.875L190.625 267.5L184.375 272.5L175.625 279.375L170 283.75H165.625L164.375 282.5V278.125L171.875 271.875L184.375 261.875L193.125 255L203.125 246.875L213.75 238.75L223.75 230.625L231.875 224.375L241.875 216.25L252.5 208.125L260 201.875L277.5 188.125L287.5 180L293.125 175.625L296.875 172.5L297.5 45.625L298.125 45H355L354.375 126.25L358.75 123.75L368.75 115.625L377.5 108.75L387.5 100.625L398.125 92.5L405.625 86.25L423.125 72.5L433.125 64.375L443.75 56.25L454.375 47.5L463.125 40.625L469.375 35.625L478.125 28.75L488.125 20.625L493.75 16.25L502.5 9.375L508.75 4.375L513.75 0.625L515.625 0Z" fill="#A7914B"></path><path d="M143.75 723.125H1147.5L1148.75 724.375V730L1146.25 731.875H144.375L142.5 729.375V724.375L143.75 723.125Z" fill="#A7914B"></path><path d="M1118.75 381.875H1186.25L1201.25 383.125L1213.75 385.625L1223.75 388.75L1234.38 393.125L1245.62 400L1254.38 407.5L1259.38 412.5L1265.62 420.625L1271.88 431.875L1276.25 443.75L1279.38 459.375L1280 465V475.625L1278.12 489.375L1275.62 500L1271.25 511.875L1265 523.75L1259.38 531.25L1251.88 539.375L1245 545L1235.62 551.25L1226.25 555.625L1215 559.375L1203.12 561.875L1191.25 563.125H1118.12L1118.75 560.625L1123.75 556.875L1125.62 553.75L1127.5 546.875L1128.12 543.125V402.5L1126.25 391.875L1123.75 388.125L1118.12 383.75L1118.75 381.875ZM1149.38 385V545.625L1150.62 552.5L1155 557.5L1158.75 559.375L1163.12 560H1193.12L1203.75 558.75L1213.12 556.25L1221.25 553.125L1230 548.125L1237.5 541.25L1242.5 535.625L1248.12 526.25L1252.5 515L1255 504.375L1256.25 495L1256.88 485.625V473.125L1255 456.875L1251.25 442.5L1246.25 430.625L1241.25 421.875L1236.25 415L1229.38 407.5L1221.88 401.25L1211.88 395L1202.5 390.625L1191.88 387.5L1186.25 386.25L1175.62 385H1149.38Z" fill="#A7914B"></path><path d="M967.5 380H986.875L998.75 381.875L1008.12 384.375L1018.12 388.125L1027.5 393.125L1038.12 400.625L1046.88 408.75L1055 419.375L1060.62 429.375L1064.38 438.75L1066.88 447.5L1068.75 457.5L1069.38 460.625V486.25L1066.88 500L1063.12 511.25L1057.5 523.125L1051.88 531.25L1046.25 537.5L1038.12 545.625L1026.88 553.125L1015 558.75L1005.62 561.875L995 564.375L985.625 565.625H969.375L960 564.375L950 561.875L939.375 558.125L929.375 553.125L920 546.875L911.875 540L905 532.5L898.75 523.125L893.75 513.75L889.375 500.625L887.5 493.125L886.25 485L885.625 470L886.25 460.625L888.125 450L890.625 440.625L895.625 428.125L901.25 418.125L909.375 408.125L917.5 400L927.5 393.125L938.125 387.5L948.75 383.75L958.75 381.25L967.5 380ZM958.75 385L948.75 386.875L940.625 390L934.375 393.125L926.875 398.75L921.25 404.375L915 413.125L910 424.375L906.875 436.25L905.625 450V457.5L906.875 471.875L910.625 489.375L915.625 503.125L920.625 513.75L926.875 523.75L933.125 531.875L938.75 538.125L946.25 545L955.625 551.25L966.25 556.25L975 558.75L984.375 560H996.25L1005 558.75L1015 555.625L1022.5 551.875L1029.38 546.875L1033.75 543.125L1040 535L1045 525.625L1048.75 513.125L1050 506.875L1050.62 491.875L1050 479.375L1048.12 467.5L1044.38 453.75L1040 441.25L1035 431.25L1030 422.5L1024.38 415L1018.75 408.75L1010.62 400.625L999.375 393.125L988.75 388.125L978.125 385.625L974.375 385H958.75Z" fill="#A7914B"></path><path d="M735.625 380H755L766.25 381.875L775.625 384.375L785.625 388.125L796.25 393.75L806.25 401.25L813.75 408.125L820 415.625L825.625 424.375L830.625 435L833.75 444.375L835.625 451.875L836.875 460L837.5 467.5V479.375L835.625 495L832.5 506.875L829.375 515L823.125 526.25L817.5 533.75L810.625 541.25L803.75 546.875L797.5 551.25L785.625 557.5L775.625 561.25L762.5 564.375L753.125 565.625H737.5L727.5 564.375L715.625 561.25L705.625 557.5L693.75 551.25L686.875 546.25L680.625 540.625L677.5 538.125L671.875 531.25L667.5 525L660.625 511.875L656.875 500.625L654.375 488.75L653.75 483.75V461.25L656.25 447.5L660 435.625L666.875 421.25L673.75 411.875L680.625 404.375L686.875 398.75L693.125 394.375L701.875 389.375L710.625 385.625L723.75 381.875L735.625 380ZM733.125 384.375L722.5 385.625L712.5 388.125L705 391.25L697.5 396.25L690 403.125L685 409.375L680 418.125L675.625 431.25L673.125 446.25V460L675.625 478.75L679.375 493.125L684.375 505.625L691.875 520L698.125 528.75L705.625 537.5L710 541.875L718.125 548.125L728.125 553.75L737.5 557.5L745 559.375L751.25 560H763.75L772.5 558.75L782.5 555.625L791.25 551.25L797.5 546.25L801.25 543.125L807.5 535L812.5 525.625L815.625 516.25L818.125 501.875V484.375L815.625 468.125L812.5 455L807.5 441.25L802.5 431.25L798.75 424.375L792.5 415.625L785 406.875L778.125 400.625L770 395L759.375 389.375L749.375 386.25L735.625 384.375H733.125Z" fill="#A7914B"></path><path d="M526.25 380H541.25L556.875 381.875L573.125 385.625L583.75 389.375L590.625 393.125L591.25 393.75L591.875 411.25V424.375L588.75 421.25L583.125 411.875L576.25 404.375L570 398.75L561.25 393.125L551.875 388.75L540.625 385.625L531.25 384.375H520L508.125 386.25L496.875 390L487.5 395.625L481.25 400.625L475 407.5L469.375 416.25L464.375 428.125L461.25 440.625L460 453.125V465L461.25 478.125L464.375 492.5L468.125 503.75L473.75 516.25L480 526.25L486.25 534.375L492.5 541.25L501.25 548.125L510.625 553.75L523.75 558.75L536.25 560.625H548.75L558.75 558.75L568.75 554.375L576.25 549.375L581.875 543.75L585 539.375V501.875L583.125 493.75L580.625 490L577.5 487.5L571.875 485L572.5 483.125H605.625V531.875L598.125 540L593.75 544.375L583.125 551.875L573.125 556.875L563.75 560.625L552.5 563.75L540 565.625H526.25L514.375 564.375L501.25 561.25L491.875 558.125L479.375 551.875L469.375 544.375L461.875 537.5L454.375 528.125L448.125 516.875L445 509.375L441.875 498.125L440 488.125L439.375 484.375V463.75L441.25 453.125L443.75 443.75L447.5 433.75L453.75 421.875L459.375 414.375L466.25 406.875L471.875 401.25L481.25 394.375L494.375 387.5L509.375 382.5L526.25 380Z" fill="#A7914B"></path><path d="M238.125 381.875H277.5V384.375L273.75 387.5L273.125 388.75L273.75 395L278.125 408.125L287.5 431.875L307.5 483.125L319.375 513.75L328.75 537.5L329.375 540H331.25L333.125 533.75L343.75 506.25L378.125 416.875L382.5 404.375L383.75 398.125V391.875L381.875 387.5L376.25 383.75L376.875 381.875H405V383.75L398.75 388.125L395.625 391.25L391.25 396.875L385 410L373.125 440.625L359.375 476.25L347.5 506.875L336.875 534.375L325.625 563.125L325 564.375H318.125L275.625 458.125L258.75 415.625L253.125 402.5L249.375 395.625L245 390L239.375 385L237.5 383.75L238.125 381.875Z" fill="#A7914B"></path><path d="M0 381.875H41.25V384.375L35.625 388.125L33.125 393.75L31.875 401.25V551.875L35 556.875L38.125 558.75L46.25 559.375H74.375L87.5 558.75L97.5 556.25L106.25 551.875L111.875 546.875L116.25 540.625L120 534.375L121.875 533.75V542.5L120.625 562.5L120 563.125H0V560.625L5.625 556.875L7.5 554.375L9.375 546.875L10 538.75V406.25L9.375 397.5L6.875 390L3.75 386.25L0 384.375V381.875Z" fill="#A7914B"></path><path d="M163.125 381.875H203.75V384.375L198.75 387.5L196.25 391.875L194.375 401.25V543.75L196.25 553.125L198.75 556.875L201.875 559.375L204.375 561.25V563.125H162.5L163.125 560.625L168.125 556.875L170 554.375L171.875 547.5L172.5 539.375V405.625L171.875 397.5L169.375 389.375L168.125 386.875L165 385.625L162.5 383.75L163.125 381.875Z" fill="#A7914B"></path><path d="M532.5 132.5H561.25L580 133.125V189.375H523.125V133.125L532.5 132.5Z" fill="#A7914B"></path><path d="M449.375 132.5H476.875L496.25 133.125V189.375H439.375V133.125L449.375 132.5Z" fill="#A7914B"></path><path d="M523.125 213.125H580V269.375H523.125V213.125Z" fill="#A7914B"></path><path d="M439.375 213.125H496.25V269.375H439.375V213.125Z" fill="#A7914B"></path><path d="M426.875 831.875H437.5L439.375 836.875L445.625 860L446.875 858.125L453.75 832.5L455.625 831.875L465.625 832.5V868.75L465 869.375H460.625L459.375 868.75L458.75 863.75V845H456.25L450 867.5L449.375 868.75H442.5L435 841.875L433.125 841.25V868.75L432.5 869.375H426.875L426.25 832.5L426.875 831.875Z" fill="#A7914B"></path><path d="M355.625 831.875L366.875 832.5L373.125 856.25L374.375 860L375.625 858.125L382.5 832.5L384.375 831.875H393.75L394.375 832.5V868.75L393.75 869.375H388.75L387.5 868.75V842.5L385.625 843.125L379.375 864.375L378.125 868.75H371.25L365 846.875L363.75 843.125L361.875 842.5V868.75L361.25 869.375H355.625V831.875Z" fill="#A7914B"></path><path d="M1046.88 831.875L1054.38 832.5L1057.5 837.5L1066.25 853.125L1069.38 858.125L1070.62 858.75V831.875H1076.25L1076.88 832.5V868.75L1076.25 869.375H1070L1068.12 867.5L1058.12 850L1054.38 844.375L1053.12 843.75V868.75L1052.5 869.375H1046.88V831.875Z" fill="#A7914B"></path><path d="M846.875 831.875L855 832.5L863.125 846.875L868.125 855.625L870.625 857.5V832.5L873.125 831.875H876.875V869.375H870L866.25 863.75L858.125 849.375L854.375 843.125L853.125 842.5V869.375H846.875V831.875Z" fill="#A7914B"></path><path d="M511.25 831.25H517.5L523.75 833.125L528.75 837.5L531.25 841.25L532.5 845V856.25L530 861.875L525.625 866.875L520 869.375H509.375L503.125 866.25L499.375 861.875L496.875 855V846.25L499.375 839.375L503.75 834.375L508.75 831.875L511.25 831.25ZM511.875 836.875L506.875 839.375L503.75 845.625V855.625L506.25 860.625L510 863.75L511.875 864.375H517.5L522.5 861.875L525.625 856.875L526.25 853.75V847.5L524.375 841.875L521.875 838.75L517.5 836.875H511.875Z" fill="#A7914B"></path><path d="M564.375 831.875H575.625L583.75 833.125L589.375 836.875L592.5 841.25L594.375 848.75L593.75 856.25L591.875 861.25L588.75 865L582.5 868.125L580 868.75L564.375 869.375L563.75 866.875V832.5L564.375 831.875ZM570.625 837.5L570 861.25L570.625 863.75H577.5L583.125 861.875L586.25 858.75L587.5 856.25V845.625L585.625 841.875L581.875 838.75L578.75 837.5H570.625Z" fill="#A7914B"></path><path d="M303.125 831.25H308.75L315 833.125L320 837.5L322.5 841.25L323.75 845L324.375 850.625L323.125 858.125L319.375 864.375L315.625 867.5L311.25 869.375H300.625L294.375 866.25L290.625 861.875L288.125 855V846.25L290.625 839.375L295 834.375L300 831.875L303.125 831.25ZM303.125 836.875L298.125 839.375L295 845L294.375 848.125V853.75L296.875 860L301.25 863.75L303.75 864.375H308.75L313.75 861.875L316.25 858.125L317.5 853.75V846.875L315 840.625L311.875 838.125L308.75 836.875H303.125Z" fill="#A7914B"></path><path d="M794.375 831.25H800.625L806.875 833.125L811.875 837.5L815 843.75L815.625 846.875V854.375L813.75 860.625L809.375 866.25L805 868.75L802.5 869.375H792.5L786.875 866.875L781.875 861.25L780 855.625V845L782.5 838.75L787.5 833.75L794.375 831.25ZM794.375 836.875L790.625 838.75L787.5 842.5L786.25 846.875V854.375L788.125 859.375L791.25 863.125L794.375 864.375H800.625L805.625 861.875L808.125 858.125L808.75 856.25V845L806.25 840L802.5 837.5L800.625 836.875H794.375Z" fill="#A7914B"></path><path d="M920 831.25H924.375L930.625 833.125L935 836.875L937.5 841.25V842.5H930.625L928.125 838.75L925.625 837.5H918.75L916.25 839.375V844.375L919.375 845.625L930.625 848.75L934.375 850.625L937.5 854.375L938.125 855.625V861.25L936.25 865L931.875 868.75L929.375 869.375H919.375L913.125 866.875L910 863.125L908.125 859.375V857.5H914.375L918.125 862.5L921.25 863.75H927.5L930.625 861.875L931.25 857.5L928.125 854.375L916.25 851.25L910.625 847.5L909.375 844.375V839.375L911.25 835.625L915 832.5L920 831.25Z" fill="#A7914B"></path><path d="M1122.5 831.25H1128.75L1135 833.125L1138.75 836.25L1141.25 841.25V843.125H1135L1131.88 838.75L1128.12 837.5H1123.12L1118.75 839.375L1116.25 843.125L1115 849.375L1115.62 856.25L1118.12 860.625L1121.25 863.125L1123.12 863.75H1128.12L1131.88 861.875L1133.75 859.375L1134.38 857.5H1141.88L1140.62 861.875L1135.62 867.5L1131.25 869.375H1120.62L1114.38 866.25L1110.62 861.875L1108.12 855V845.625L1110.62 839.375L1115 834.375L1120 831.875L1122.5 831.25Z" fill="#A7914B"></path><path d="M176.875 831.25H183.125L188.75 833.125L192.5 836.25L195.625 841.875V843.125H188.75L185.625 838.75L181.875 837.5H176.875L172.5 839.375L170 843.75L168.75 848.75V853.75L171.25 860L171.875 861.875L177.5 863.75H181.875L185.625 861.875L187.5 859.375L188.125 857.5H195.625L195 860.625L192.5 864.375L188.125 868.125L184.375 869.375H174.375L168.125 866.25L164.375 861.875L161.875 855V846.25L164.375 839.375L168.75 834.375L173.75 831.875L176.875 831.25Z" fill="#A7914B"></path><path d="M240 831.25H246.25L251.875 833.125L255.625 836.25L258.75 841.875V843.125H251.875L248.75 838.75L245 837.5H240L235.625 839.375L233.125 843.75L231.875 848.75V853.75L234.375 860L235 861.875L240.625 863.75H245L248.75 861.875L250.625 860L251.25 857.5H258.75L258.125 860.625L255.625 864.375L251.25 868.125L247.5 869.375H237.5L231.25 866.25L227.5 861.875L225 855V846.25L227.5 839.375L231.875 834.375L236.875 831.875L240 831.25Z" fill="#A7914B"></path><path d="M635.625 831.875H641.875L643.75 833.75L651.875 857.5L655.625 867.5V869.375H649.375L647.5 864.375L646.875 861.875L631.25 861.25L629.375 869.375H622.5L624.375 863.125L631.875 841.25L635 832.5L635.625 831.875ZM637.5 841.25L633.125 854.375V856.25H645L643.75 850L641.25 841.875L640.625 841.25H637.5Z" fill="#A7914B"></path><path d="M113.125 831.875H120L121.25 833.125L128.125 853.75L133.125 867.5V869.375H126.875L125 864.375L124.375 861.875L108.75 861.25L106.875 869.375H100L101.875 863.125L112.5 832.5L113.125 831.875ZM115 841.25L110.625 855V856.25H122.5L121.875 851.875L118.75 841.875L118.125 841.25H115Z" fill="#A7914B"></path><path d="M686.25 831.875H711.875L712.5 832.5V836.875L711.875 837.5H700.625V869.375H695L694.375 868.75V837.5H682.5V832.5L686.25 831.875Z" fill="#A7914B"></path><path d="M741.875 831.875H747.5L748.75 832.5L748.125 869.375H742.5L741.875 868.75V831.875Z" fill="#A7914B"></path><path d="M1007.5 831.875L1013.75 832.5V869.375H1007.5V831.875Z" fill="#A7914B"></path><path d="M1174.38 862.5L1177.5 863.75L1178.12 864.375L1177.5 868.75L1173.12 869.375L1171.25 867.5L1171.88 863.75L1174.38 862.5Z" fill="#A7914B"></path></g><defs><clipPath id="clip0_55_845"><rect width="1280" height="869" fill="white"></rect></clipPath></defs></svg>