<?xml version="1.0" encoding="UTF-8"?>
<svg xmlns="http://www.w3.org/2000/svg" width="86" height="59" viewBox="0 0 86 59" fill="none">
  <g clip-path="url(#clip0_55_845)">
    <path d="M34.7407 0.646484L34.9897 0.729492L35.0728 0.895508L53.708 0.937012L54.3721 1.47656L54.7456 1.76709L55.3267 2.22363L55.9492 2.72168L57.1113 3.63477L57.7754 4.17432L58.3149 4.58936L58.979 5.12891L60.1411 6.04199L60.8052 6.58154L61.3447 6.99658L62.0088 7.53613L62.7144 8.07568L63.4199 8.65674L63.9595 9.07178L64.6235 9.61133L65.7856 10.5244L66.4497 11.064L67.0308 11.5205L67.7778 12.1016L68.3174 12.5166L68.9814 13.0562L69.687 13.5957L70.3926 14.1768L71.5547 15.0898L72.2188 15.6294L72.9243 16.1689L73.6299 16.75L74.3354 17.2896L75.041 17.8706L75.7466 18.4102L76.4521 18.9912L76.7427 19.1987V19.2402H57.5264L56.8623 18.7422L56.1567 18.1611L55.6172 17.7461L54.9531 17.2065L54.2476 16.667L53.542 16.0859L53.0024 15.6709L52.3799 15.1729L51.7988 14.7163L51.1348 14.1768L50.5952 13.7617L49.9727 13.2637L49.3916 12.8071L48.7275 12.2676L48.188 11.8525L47.5239 11.313L46.9844 10.8979L46.3203 10.3584L45.6147 9.81885L45.1167 9.40381L44.5771 8.98877L43.9131 8.44922L43.5396 8.15869L42.9585 7.70215L42.3359 7.2041L41.1738 6.29102L40.6758 5.87598L40.1362 5.46094L39.4722 4.92139L38.7666 4.38184L38.1025 3.84229L37.397 3.30273L36.8989 2.8877L36.3179 2.43115L35.9028 2.09912L35.3218 1.64258L34.8237 1.26904L34.6162 1.35205L34.0767 1.80859L33.5371 2.22363L32.873 2.76318L32.4995 3.05371L32.0845 3.38574L31.5034 3.84229L30.8394 4.38184L30.4658 4.67236L29.8848 5.12891L29.2207 5.66846L28.8472 5.95898L28.2661 6.41553L27.6021 6.95508L27.0625 7.37012L26.4814 7.82666L25.8174 8.36621L25.2363 8.82275L24.5723 9.3623L24.0327 9.77734L23.3687 10.3169L22.8291 10.7319L22.165 11.2715L21.4595 11.811L20.9614 12.2261L20.2559 12.7656L19.5503 13.3467L18.8447 13.8862L18.3467 14.3013L17.8071 14.7163L17.1431 15.2559L16.562 15.7124L15.9395 16.2104L13.6152 18.0366L13.1587 18.4102L12.7437 18.7422L12.1626 19.1987L11.7891 19.4893H11.4985L11.4155 19.4062V19.1157L11.9136 18.7007L12.7437 18.0366L13.3247 17.5801L13.9888 17.0405L14.6943 16.501L15.3584 15.9614L15.8979 15.5464L16.562 15.0068L17.2676 14.4673L17.7656 14.0522L18.9277 13.1392L19.5918 12.5996L19.9653 12.3091L20.2144 12.1016L20.2559 3.67627L20.2974 3.63477H24.0742L24.0327 9.03027L24.3232 8.86426L24.9873 8.32471L25.5684 7.86816L26.2324 7.32861L26.938 6.78906L27.436 6.37402L28.5981 5.46094L29.2622 4.92139L29.9678 4.38184L30.6733 3.80078L31.2544 3.34424L31.6694 3.01221L32.2505 2.55566L32.9146 2.01611L33.2881 1.72559L33.8691 1.26904L34.2842 0.937012L34.6162 0.687988L34.7407 0.646484Z" fill="#A7914B"></path>
    <path d="M10.0459 48.6665H76.7012L76.7842 48.7495V49.123L76.6182 49.2476H10.0874L9.96289 49.0815V48.7495L10.0459 48.6665Z" fill="#A7914B"></path>
    <path d="M74.792 26.0054H79.2744L80.2705 26.0884L81.1006 26.2544L81.7646 26.4619L82.4702 26.7524L83.2173 27.209L83.7983 27.707L84.1304 28.0391L84.5454 28.5786L84.9604 29.3257L85.251 30.1143L85.4585 31.1519L85.5 31.5254V32.231L85.3755 33.144L85.2095 33.8496L84.9189 34.6382L84.5039 35.4268L84.1304 35.9248L83.6323 36.4644L83.1758 36.8379L82.5532 37.2529L81.9307 37.5435L81.1836 37.7925L80.395 37.9585L79.6064 38.0415H74.7505L74.792 37.8755L75.124 37.6265L75.2485 37.4189L75.373 36.9624L75.4146 36.7134V27.375L75.29 26.6694L75.124 26.4204L74.7505 26.1299L74.792 26.0054ZM76.8257 26.2129V36.8794L76.9087 37.3359L77.1992 37.668L77.4482 37.7925L77.7388 37.834H79.731L80.4365 37.751L81.0591 37.585L81.5986 37.3774L82.1797 37.0454L82.6777 36.5889L83.0098 36.2153L83.3833 35.5928L83.6738 34.8457L83.8398 34.1401L83.9229 33.5176L83.9644 32.895V32.0649L83.8398 30.9858L83.5908 30.0312L83.2588 29.2427L82.9268 28.6616L82.5947 28.2051L82.1382 27.707L81.6401 27.292L80.9761 26.877L80.3535 26.5864L79.6479 26.3789L79.2744 26.2959L78.5688 26.2129H76.8257Z" fill="#A7914B"></path>
    <path d="M64.748 25.8809H66.0347L66.8232 26.0054L67.4458 26.1714L68.1099 26.4204L68.7324 26.7524L69.438 27.2505L70.019 27.79L70.5586 28.4956L70.9321 29.1597L71.1812 29.7822L71.3472 30.3633L71.4717 31.0273L71.5132 31.2349V32.9365L71.3472 33.8496L71.0981 34.5967L70.7246 35.3853L70.3511 35.9248L69.9775 36.3398L69.438 36.8794L68.6909 37.3774L67.9023 37.751L67.2798 37.9585L66.5742 38.1245L65.9517 38.2075H64.8726L64.25 38.1245L63.5859 37.9585L62.8804 37.7095L62.2163 37.3774L61.5938 36.9624L61.0542 36.5059L60.5977 36.0078L60.1826 35.3853L59.8506 34.7627L59.5601 33.8911L59.4355 33.3931L59.3525 32.8535L59.311 31.8574L59.3525 31.2349L59.4771 30.5293L59.6431 29.9067L59.9751 29.0767L60.3486 28.4126L60.8882 27.7485L61.4277 27.209L62.0918 26.7524L62.7974 26.3789L63.5029 26.1299L64.167 25.9639L64.748 25.8809ZM64.167 26.2129L63.5029 26.3374L62.9634 26.5449L62.5483 26.7524L62.0503 27.126L61.6768 27.4995L61.2617 28.0806L60.9297 28.8276L60.7222 29.6162L60.6392 30.5293V31.0273L60.7222 31.9819L60.9712 33.144L61.3032 34.0571L61.6353 34.7627L62.0503 35.4268L62.4653 35.9663L62.8389 36.3813L63.3369 36.8379L63.9595 37.2529L64.665 37.585L65.2461 37.751L65.8687 37.834H66.6572L67.2383 37.751L67.9023 37.5435L68.4004 37.2944L68.8569 36.9624L69.1475 36.7134L69.5625 36.1738L69.8945 35.5513L70.1436 34.7212L70.2266 34.3062L70.2681 33.3101L70.2266 32.48L70.1021 31.6914L69.853 30.7783L69.5625 29.9482L69.2305 29.2842L68.8984 28.7031L68.5249 28.2051L68.1514 27.79L67.6118 27.2505L66.8647 26.7524L66.1592 26.4204L65.4536 26.2544L65.2046 26.2129H64.167Z" fill="#A7914B"></path>
    <path d="M49.3501 25.8809H50.6367L51.3838 26.0054L52.0063 26.1714L52.6704 26.4204L53.376 26.7939L54.04 27.292L54.5381 27.7485L54.9531 28.2466L55.3267 28.8276L55.6587 29.5332L55.8662 30.1558L55.9907 30.6538L56.0737 31.1934L56.1152 31.6914V32.48L55.9907 33.5176L55.7832 34.3062L55.5757 34.8457L55.1606 35.5928L54.7871 36.0908L54.3306 36.5889L53.874 36.9624L53.459 37.2529L52.6704 37.668L52.0063 37.917L51.1348 38.1245L50.5122 38.2075H49.4746L48.8105 38.1245L48.022 37.917L47.3579 37.668L46.5693 37.2529L46.1128 36.9209L45.6978 36.5474L45.4902 36.3813L45.1167 35.9248L44.8262 35.5098L44.3696 34.6382L44.1206 33.8911L43.9546 33.1025L43.9131 32.7705V31.2764L44.0791 30.3633L44.3281 29.5747L44.7847 28.6201L45.2412 27.9976L45.6978 27.4995L46.1128 27.126L46.5278 26.8354L47.1089 26.5034L47.6899 26.2544L48.5615 26.0054L49.3501 25.8809ZM49.1841 26.1714L48.4785 26.2544L47.8145 26.4204L47.3164 26.6279L46.8184 26.96L46.3203 27.4165L45.9883 27.8315L45.6562 28.4126L45.3657 29.2842L45.1997 30.2803V31.1934L45.3657 32.4385L45.6147 33.3931L45.9468 34.2231L46.4448 35.1777L46.8599 35.7588L47.3579 36.3398L47.6484 36.6304L48.188 37.0454L48.8521 37.4189L49.4746 37.668L49.9727 37.7925L50.3877 37.834H51.2178L51.7988 37.751L52.4629 37.5435L53.0439 37.2529L53.459 36.9209L53.708 36.7134L54.123 36.1738L54.4551 35.5513L54.6626 34.9287L54.8286 33.9741V32.812L54.6626 31.7329L54.4551 30.8613L54.123 29.9482L53.791 29.2842L53.542 28.8276L53.127 28.2466L52.6289 27.6655L52.1724 27.2505L51.6328 26.877L50.9272 26.5034L50.2632 26.2959L49.3501 26.1714H49.1841Z" fill="#A7914B"></path>
    <path d="M35.4463 25.8809H36.4424L37.48 26.0054L38.5591 26.2544L39.2646 26.5034L39.7212 26.7524L39.7627 26.7939L39.8042 27.9561V28.8276L39.5967 28.6201L39.2231 27.9976L38.7666 27.4995L38.3516 27.126L37.7705 26.7524L37.1479 26.4619L36.4009 26.2544L35.7783 26.1714H35.0312L34.2427 26.2959L33.4956 26.5449L32.873 26.9185L32.458 27.2505L32.043 27.707L31.6694 28.2881L31.3374 29.0767L31.1299 29.9067L31.0469 30.7368V31.5254L31.1299 32.397L31.3374 33.3516L31.5864 34.0986L31.96 34.9287L32.375 35.5928L32.79 36.1323L33.2051 36.5889L33.7861 37.0454L34.4087 37.4189L35.2803 37.751L36.1104 37.8755H36.9404L37.6045 37.751L38.2686 37.4604L38.7666 37.1284L39.1401 36.7549L39.3477 36.4644V33.9741L39.2231 33.4346L39.0571 33.1855L38.8496 33.0195L38.4761 32.8535L38.5176 32.729H40.7173V35.9663L40.2192 36.5059L39.9287 36.7964L39.2231 37.2944L38.5591 37.6265L37.9365 37.8755L37.1895 38.083L36.3594 38.2075H35.4463L34.6577 38.1245L33.7861 37.917L33.1636 37.7095L32.3335 37.2944L31.6694 36.7964L31.1714 36.3398L30.6733 35.7173L30.2583 34.9702L30.0508 34.4722L29.8433 33.7251L29.7188 33.061L29.6772 32.812V31.4424L29.8018 30.7368L29.9678 30.1143L30.2168 29.4502L30.6318 28.6616L31.0054 28.1636L31.4619 27.6655L31.8354 27.292L32.458 26.8354L33.3296 26.3789L34.3257 26.0469L35.4463 25.8809Z" fill="#A7914B"></path>
    <path d="M16.313 26.0054H18.9277V26.1714L18.6787 26.3789L18.6372 26.4619L18.6787 26.877L18.9692 27.7485L19.5918 29.3257L20.9199 32.729L21.7085 34.7627L22.3311 36.3398L22.3726 36.5059H22.4971L22.6216 36.0908L23.3271 34.2646L25.6099 28.3296L25.9004 27.4995L25.9834 27.0845V26.6694L25.8589 26.3789L25.4854 26.1299L25.5269 26.0054H27.3945V26.1299L26.9795 26.4204L26.772 26.6279L26.4814 27.0015L26.0664 27.873L25.2778 29.9067L24.3647 32.2725L23.5762 34.3062L22.8706 36.1323L22.1235 38.0415L22.082 38.1245H21.6255L18.8032 31.0688L17.6826 28.2466L17.3091 27.375L17.0601 26.9185L16.7695 26.5449L16.396 26.2129L16.2715 26.1299L16.313 26.0054Z" fill="#A7914B"></path>
    <path d="M0.5 26.0054H3.23926V26.1714L2.86572 26.4204L2.69971 26.7939L2.6167 27.292V37.2944L2.82422 37.6265L3.03174 37.751L3.57129 37.7925H5.43896L6.31055 37.751L6.97461 37.585L7.55566 37.2944L7.9292 36.9624L8.21973 36.5474L8.46875 36.1323L8.59326 36.0908V36.6719L8.51025 38L8.46875 38.0415H0.5V37.8755L0.873535 37.6265L0.998047 37.4604L1.12256 36.9624L1.16406 36.4229V27.624L1.12256 27.043L0.956543 26.5449L0.749023 26.2959L0.5 26.1714V26.0054Z" fill="#A7914B"></path>
    <path d="M11.3325 26.0054H14.0303V26.1714L13.6982 26.3789L13.5322 26.6694L13.4077 27.292V36.7549L13.5322 37.3774L13.6982 37.6265L13.9058 37.7925L14.0718 37.917V38.0415H11.291L11.3325 37.8755L11.6646 37.6265L11.7891 37.4604L11.9136 37.0039L11.9551 36.4644V27.5825L11.9136 27.043L11.7476 26.5034L11.6646 26.3374L11.457 26.2544L11.291 26.1299L11.3325 26.0054Z" fill="#A7914B"></path>
    <path d="M35.8613 9.44531H37.7705L39.0156 9.48682V13.2222H35.2388V9.48682L35.8613 9.44531Z" fill="#A7914B"></path>
    <path d="M30.3413 9.44531H32.1675L33.4541 9.48682V13.2222H29.6772V9.48682L30.3413 9.44531Z" fill="#A7914B"></path>
    <path d="M35.2388 14.7993H39.0156V18.5347H35.2388V14.7993Z" fill="#A7914B"></path>
    <path d="M29.6772 14.7993H33.4541V18.5347H29.6772V14.7993Z" fill="#A7914B"></path>
    <path d="M28.8472 55.8882H29.5527L29.6772 56.2202L30.0923 57.7559L30.1753 57.6313L30.6318 55.9297L30.7563 55.8882L31.4204 55.9297V58.3369L31.3789 58.3784H31.0884L31.0054 58.3369L30.9639 58.0049V56.7598H30.7979L30.3828 58.2539L30.3413 58.3369H29.8848L29.3867 56.5522L29.2622 56.5107V58.3369L29.2207 58.3784H28.8472L28.8057 55.9297L28.8472 55.8882Z" fill="#A7914B"></path>
    <path d="M24.1157 55.8882L24.8628 55.9297L25.2778 57.5068L25.3608 57.7559L25.4438 57.6313L25.9004 55.9297L26.0249 55.8882H26.6475L26.689 55.9297V58.3369L26.6475 58.3784H26.3154L26.2324 58.3369V56.5938L26.1079 56.6353L25.6929 58.0464L25.6099 58.3369H25.1533L24.7383 56.8843L24.6553 56.6353L24.5308 56.5938V58.3369L24.4893 58.3784H24.1157V55.8882Z" fill="#A7914B"></path>
    <path d="M70.019 55.8882L70.5171 55.9297L70.7246 56.2617L71.3057 57.2993L71.5132 57.6313L71.5962 57.6729V55.8882H71.9697L72.0112 55.9297V58.3369L71.9697 58.3784H71.5547L71.4302 58.2539L70.7661 57.0918L70.5171 56.7183L70.4341 56.6768V58.3369L70.3926 58.3784H70.019V55.8882Z" fill="#A7914B"></path>
    <path d="M56.7378 55.8882L57.2773 55.9297L57.8169 56.8843L58.1489 57.4653L58.3149 57.5898V55.9297L58.481 55.8882H58.73V58.3784H58.2734L58.0244 58.0049L57.4849 57.0503L57.2358 56.6353L57.1528 56.5938V58.3784H56.7378V55.8882Z" fill="#A7914B"></path>
    <path d="M34.4502 55.8467H34.8652L35.2803 55.9712L35.6123 56.2617L35.7783 56.5107L35.8613 56.7598V57.5068L35.6953 57.8804L35.4048 58.2124L35.0312 58.3784H34.3257L33.9106 58.1709L33.6616 57.8804L33.4956 57.4238V56.8428L33.6616 56.3862L33.9521 56.0542L34.2842 55.8882L34.4502 55.8467ZM34.4917 56.2202L34.1597 56.3862L33.9521 56.8013V57.4653L34.1182 57.7974L34.3672 58.0049L34.4917 58.0464H34.8652L35.1973 57.8804L35.4048 57.5483L35.4463 57.3408V56.9258L35.3218 56.5522L35.1558 56.3447L34.8652 56.2202H34.4917Z" fill="#A7914B"></path>
    <path d="M37.978 55.8882H38.7251L39.2646 55.9712L39.6382 56.2202L39.8457 56.5107L39.9702 57.0088L39.9287 57.5068L39.8042 57.8389L39.5967 58.0879L39.1816 58.2954L39.0156 58.3369L37.978 58.3784L37.9365 58.2124V55.9297L37.978 55.8882ZM38.3931 56.2617L38.3516 57.8389L38.3931 58.0049H38.8496L39.2231 57.8804L39.4307 57.6729L39.5137 57.5068V56.8013L39.3892 56.5522L39.1401 56.3447L38.9326 56.2617H38.3931Z" fill="#A7914B"></path>
    <path d="M20.6294 55.8467H21.0029L21.418 55.9712L21.75 56.2617L21.916 56.5107L21.999 56.7598L22.0405 57.1333L21.9575 57.6313L21.7085 58.0464L21.4595 58.2539L21.1689 58.3784H20.4634L20.0483 58.1709L19.7993 57.8804L19.6333 57.4238V56.8428L19.7993 56.3862L20.0898 56.0542L20.4219 55.8882L20.6294 55.8467ZM20.6294 56.2202L20.2974 56.3862L20.0898 56.7598L20.0483 56.9673V57.3408L20.2144 57.7559L20.5049 58.0049L20.6709 58.0464H21.0029L21.335 57.8804L21.501 57.6313L21.584 57.3408V56.8843L21.418 56.4692L21.2104 56.3032L21.0029 56.2202H20.6294Z" fill="#A7914B"></path>
    <path d="M53.2515 55.8467H53.6665L54.0815 55.9712L54.4136 56.2617L54.6211 56.6768L54.6626 56.8843V57.3823L54.5381 57.7974L54.2476 58.1709L53.957 58.3369L53.791 58.3784H53.127L52.7534 58.2124L52.4214 57.8389L52.2969 57.4653V56.7598L52.4629 56.3447L52.7949 56.0127L53.2515 55.8467ZM53.2515 56.2202L53.0024 56.3447L52.7949 56.5938L52.7119 56.8843V57.3823L52.8364 57.7144L53.0439 57.9634L53.2515 58.0464H53.6665L53.9985 57.8804L54.1646 57.6313L54.2061 57.5068V56.7598L54.04 56.4277L53.791 56.2617L53.6665 56.2202H53.2515Z" fill="#A7914B"></path>
    <path d="M61.5938 55.8467H61.8843L62.2993 55.9712L62.5898 56.2202L62.7559 56.5107V56.5938H62.2993L62.1333 56.3447L61.9673 56.2617H61.5107L61.3447 56.3862V56.7183L61.5522 56.8013L62.2993 57.0088L62.5483 57.1333L62.7559 57.3823L62.7974 57.4653V57.8389L62.6729 58.0879L62.3823 58.3369L62.2163 58.3784H61.5522L61.1372 58.2124L60.9297 57.9634L60.8052 57.7144V57.5898H61.2202L61.4692 57.9219L61.6768 58.0049H62.0918L62.2993 57.8804L62.3408 57.5898L62.1333 57.3823L61.3447 57.1748L60.9712 56.9258L60.8882 56.7183V56.3862L61.0127 56.1372L61.2617 55.9297L61.5938 55.8467Z" fill="#A7914B"></path>
    <path d="M75.041 55.8467H75.4561L75.8711 55.9712L76.1201 56.1787L76.2861 56.5107V56.6353H75.8711L75.6636 56.3447L75.4146 56.2617H75.0825L74.792 56.3862L74.626 56.6353L74.543 57.0503L74.5845 57.5068L74.7505 57.7974L74.958 57.9634L75.0825 58.0049H75.4146L75.6636 57.8804L75.7881 57.7144L75.8296 57.5898H76.3276L76.2446 57.8804L75.9126 58.2539L75.6221 58.3784H74.9165L74.5015 58.1709L74.2524 57.8804L74.0864 57.4238V56.8013L74.2524 56.3862L74.543 56.0542L74.875 55.8882L75.041 55.8467Z" fill="#A7914B"></path>
    <path d="M12.2456 55.8467H12.6606L13.0342 55.9712L13.2832 56.1787L13.4907 56.5522V56.6353H13.0342L12.8267 56.3447L12.5776 56.2617H12.2456L11.9551 56.3862L11.7891 56.6768L11.7061 57.0088V57.3408L11.8721 57.7559L11.9136 57.8804L12.2871 58.0049H12.5776L12.8267 57.8804L12.9512 57.7144L12.9927 57.5898H13.4907L13.4492 57.7974L13.2832 58.0464L12.9927 58.2954L12.7437 58.3784H12.0796L11.6646 58.1709L11.4155 57.8804L11.2495 57.4238V56.8428L11.4155 56.3862L11.7061 56.0542L12.0381 55.8882L12.2456 55.8467Z" fill="#A7914B"></path>
    <path d="M16.4375 55.8467H16.8525L17.2261 55.9712L17.4751 56.1787L17.6826 56.5522V56.6353H17.2261L17.0186 56.3447L16.7695 56.2617H16.4375L16.147 56.3862L15.981 56.6768L15.8979 57.0088V57.3408L16.064 57.7559L16.1055 57.8804L16.479 58.0049H16.7695L17.0186 57.8804L17.1431 57.7559L17.1846 57.5898H17.6826L17.6411 57.7974L17.4751 58.0464L17.1846 58.2954L16.9355 58.3784H16.2715L15.8564 58.1709L15.6074 57.8804L15.4414 57.4238V56.8428L15.6074 56.3862L15.8979 56.0542L16.23 55.8882L16.4375 55.8467Z" fill="#A7914B"></path>
    <path d="M42.7095 55.8882H43.1245L43.249 56.0127L43.7886 57.5898L44.0376 58.2539V58.3784H43.6226L43.498 58.0464L43.4565 57.8804L42.4189 57.8389L42.2944 58.3784H41.8379L41.9624 57.9634L42.4604 56.5107L42.668 55.9297L42.7095 55.8882ZM42.834 56.5107L42.5435 57.3823V57.5068H43.332L43.249 57.0918L43.083 56.5522L43.0415 56.5107H42.834Z" fill="#A7914B"></path>
    <path d="M8.01221 55.8882H8.46875L8.55176 55.9712L9.0083 57.3408L9.34033 58.2539V58.3784H8.92529L8.80078 58.0464L8.75928 57.8804L7.72168 57.8389L7.59717 58.3784H7.14062L7.26514 57.9634L7.9707 55.9297L8.01221 55.8882ZM8.13672 56.5107L7.84619 57.4238V57.5068H8.63477L8.59326 57.2163L8.38574 56.5522L8.34424 56.5107H8.13672Z" fill="#A7914B"></path>
    <path d="M46.0713 55.8882H47.7729L47.8145 55.9297V56.2202L47.7729 56.2617H47.0259V58.3784H46.6523L46.6108 58.3369V56.2617H45.8223V55.9297L46.0713 55.8882Z" fill="#A7914B"></path>
    <path d="M49.7651 55.8882H50.1387L50.2217 55.9297L50.1802 58.3784H49.8066L49.7651 58.3369V55.8882Z" fill="#A7914B"></path>
    <path d="M67.4043 55.8882L67.8193 55.9297V58.3784H67.4043V55.8882Z" fill="#A7914B"></path>
    <path d="M78.4858 57.9219L78.6934 58.0049L78.7349 58.0464L78.6934 58.3369L78.4028 58.3784L78.2783 58.2539L78.3198 58.0049L78.4858 57.9219Z" fill="#A7914B"></path>
  </g>
  <defs>
    <clipPath id="clip0_55_845">
      <rect width="85" height="57.707" fill="white" transform="translate(0.5 0.646484)"></rect>
    </clipPath>
  </defs>
</svg>
